<svg width="200" height="46" viewBox="0 0 200 46" fill="none" xmlns="http://www.w3.org/2000/svg">
<g style="mix-blend-mode:screen">
<path d="M26.8437 1.723C31.7981 1.72348 36.5991 3.42062 40.4286 6.52529C44.2582 9.62995 46.8793 13.9501 47.8455 18.7495C48.8117 23.5489 48.0632 28.5308 45.7274 32.8462C43.3916 37.1617 39.6132 40.5437 35.0358 42.4161C30.4584 44.2885 25.3653 44.5354 20.6243 43.1147C15.8833 41.694 11.7877 38.6937 9.0353 34.6249C6.2829 30.5561 5.04402 25.6706 5.52972 20.8008C6.01543 15.931 8.19568 11.3781 11.699 7.91799C13.6833 5.94771 16.0436 4.38568 18.6432 3.32231C21.2427 2.25895 24.03 1.71536 26.8437 1.723ZM26.8437 0C14.0516 0 3.68231 10.2416 3.68231 22.8762C3.68231 35.5109 14.0516 45.7524 26.8437 45.7524C39.6359 45.7524 50.0051 35.5109 50.0051 22.8781C50.0051 10.2453 39.6359 0 26.8437 0Z" fill="url(#paint0_linear_110_43)"/>
</g>
<path d="M53.1055 22.3979H0.775112C0.56954 22.3979 0.372387 22.4786 0.227025 22.6222C0.0816633 22.7657 0 22.9605 0 23.1635C0 23.3666 0.0816633 23.5613 0.227025 23.7048C0.372387 23.8484 0.56954 23.9291 0.775112 23.9291H53.1055C53.3111 23.9291 53.5083 23.8484 53.6536 23.7048C53.799 23.5613 53.8807 23.3666 53.8807 23.1635C53.8807 22.9605 53.799 22.7657 53.6536 22.6222C53.5083 22.4786 53.3111 22.3979 53.1055 22.3979Z" fill="url(#paint1_linear_110_43)"/>
<g style="mix-blend-mode:screen">
<path d="M142.213 20.4217C142.213 21.9222 140.863 22.3087 138.924 22.5599C138.7 22.5905 138.867 23.4784 139.121 23.4784H148.673C148.926 23.4784 149.095 22.5905 148.871 22.5618C146.93 22.3115 145.586 21.9222 145.586 20.4236V6.73788C145.586 6.04368 146.008 5.82122 146.683 5.82122H147.611C150.028 5.82122 151.264 6.46074 151.546 7.6267C151.658 8.12627 152.416 8.09753 152.501 7.6267C152.672 6.62757 152.953 5.59971 153.373 4.29565C153.542 3.76736 153.063 3.79608 152.558 3.85169C151.208 3.99165 149.325 4.04634 143.984 4.04634C138.644 4.04634 137.464 3.99165 136.172 3.85169C135.666 3.79608 135.356 3.76736 135.3 4.29565C135.175 5.39107 134.967 6.47554 134.676 7.53958L134.655 7.62206C134.542 8.0929 135.499 8.17816 135.752 7.62206C136.315 6.42737 137.802 5.81658 140.473 5.81658H141.289C141.963 5.81658 142.217 6.04089 142.217 6.73324L142.213 20.4217Z" fill="url(#paint2_linear_110_43)"/>
<path fill-rule="evenodd" clip-rule="evenodd" d="M64.2734 22.4926L64.1139 22.5325H64.1185C63.8933 22.5881 64.0059 23.5603 64.2865 23.5316C65.5796 23.3935 66.9572 23.3648 68.697 23.3648C69.8484 23.3648 70.8966 23.4167 71.8312 23.463C72.5819 23.4992 73.2651 23.5316 73.8666 23.5316C80.6943 23.5316 84.3766 18.7018 84.3766 13.3438C84.3766 7.98575 80.6943 3.98831 73.8928 3.98831C73.2519 3.98831 72.504 4.02168 71.6782 4.05968C70.6563 4.10509 69.5134 4.15236 68.3 4.15236C67.1262 4.16805 65.9526 4.11233 64.7857 3.98552C64.5615 3.95679 64.4198 4.87438 64.644 4.92999C65.8518 5.23399 67.005 5.70666 67.005 7.48341V19.8103C67.005 21.7975 65.8208 22.0959 64.2687 22.4908L64.2734 22.4926ZM81.0012 14.925C81.0012 19.6166 78.7256 22.0616 74.1443 22.0616C71.423 22.0616 70.3786 21.3109 70.3786 19.8122V7.48526C70.3786 6.06906 71.0242 5.45828 73.0201 5.45828C78.079 5.45921 81.0012 9.62348 81.0012 14.925Z" fill="url(#paint3_linear_110_43)"/>
<path d="M88.4398 22.4931L88.2812 22.533C88.056 22.5904 88.1686 23.5627 88.4502 23.5339C90.5043 23.3328 92.8841 23.3486 95.0818 23.3615C95.6214 23.3615 96.1478 23.368 96.6555 23.368C99.0165 23.368 100.563 23.4496 102.137 23.5339C103.908 23.5339 105.116 20.7312 105.116 19.315C105.116 18.8423 104.358 18.7023 104.161 19.0091C103.486 20.0639 101.8 21.975 97.5554 21.975C95.2216 21.975 94.5469 21.3929 94.5469 19.8099V15.147C94.5469 14.425 94.9138 14.285 95.4759 14.285H95.8982C97.5282 14.285 98.9329 14.6474 99.5804 15.5353C99.891 15.9506 100.311 16.0062 100.536 15.5066L102.139 12.0096C102.391 11.4535 101.773 11.3989 101.492 11.6473C100.339 12.6751 98.3436 12.8976 96.0671 12.8976H95.4778C94.9148 12.8976 94.5488 12.7576 94.5488 12.0365V7.51077C94.5488 6.06768 95.1963 5.56441 97.1641 5.56441C100.676 5.56441 101.519 6.3411 101.941 7.70263C102.054 8.09097 102.728 8.09097 102.84 7.70263L103.515 5.06393C103.684 4.42533 103.657 3.98046 102.982 3.98046C102.191 3.99992 101.454 4.02493 100.724 4.0518H100.716C99.3186 4.1 97.9448 4.14449 96.266 4.14449C96.0089 4.14449 95.7124 4.14449 95.3849 4.14449C93.5259 4.1519 90.7061 4.16397 88.9616 3.97582C88.7364 3.94709 88.5947 4.86465 88.8199 4.92026C90.0276 5.22426 91.1809 5.69696 91.1809 7.4737V19.8006C91.1809 21.7878 89.9966 22.0862 88.4436 22.481L88.4398 22.4931Z" fill="url(#paint4_linear_110_43)"/>
<path d="M122.145 22.533C123.916 22.3931 123.662 21.4208 122.342 19.5913L119.364 15.4826L116.075 19.5913C114.501 21.5376 114.865 22.3949 116.468 22.533C116.777 22.5618 116.749 23.4766 116.384 23.4766H109.921C109.555 23.4766 109.471 22.5599 109.835 22.533C110.961 22.4487 112.562 21.4208 114.024 19.5913L118.407 14.1507L113.939 7.95946C112.42 5.87685 111.016 5.07235 109.891 4.98894C109.498 4.9602 109.582 4.04449 109.977 4.04449H118.047C118.385 4.04449 118.467 4.96206 118.132 4.98894C116.304 5.15484 116.559 6.07241 117.907 7.93072L120.493 11.5389L123.388 7.93072C124.907 6.04368 124.625 5.09923 123.051 4.98894C122.658 4.9602 122.77 4.04449 123.108 4.04449H129.571C129.908 4.04449 129.992 4.96206 129.628 4.98894C128.531 5.07235 126.901 6.10114 125.44 7.93072L121.472 12.868L126.279 19.5588C127.769 21.6127 129.231 22.445 130.355 22.5293C130.721 22.5581 130.608 23.4729 130.299 23.4729H122.205C121.867 23.4729 121.755 22.5562 122.149 22.5293L122.145 22.533Z" fill="url(#paint5_linear_110_43)"/>
<path d="M157.743 22.4932C159.295 22.1002 160.479 21.7999 160.479 19.8127V7.48579C160.479 5.70904 159.326 5.23635 158.119 4.93235C157.894 4.87674 158.034 3.95917 158.258 3.9879C160.003 4.17791 162.822 4.16401 164.681 4.1566H165.563C167.239 4.1566 168.616 4.10933 170.013 4.06391C170.746 4.03889 171.485 4.01201 172.275 3.99254C172.95 3.99254 172.977 4.43742 172.808 5.07601L172.134 7.71471C172.022 8.10306 171.347 8.10306 171.234 7.71471C170.812 6.35319 169.969 5.57652 166.457 5.57652C164.486 5.57652 163.842 6.07608 163.842 7.52287V12.0486C163.842 12.7697 164.208 12.9096 164.771 12.9096H165.36C167.637 12.9096 169.631 12.6872 170.785 11.6593C171.066 11.4109 171.684 11.4666 171.432 12.0217L169.833 15.5113C169.608 16.0108 169.188 15.9552 168.878 15.54C168.23 14.6521 166.825 14.2897 165.195 14.2897H164.772C164.209 14.2897 163.844 14.4296 163.844 15.1517V19.8192C163.844 21.4023 164.519 21.9843 166.847 21.9843C171.093 21.9843 172.778 20.0685 173.453 19.0184C173.651 18.7117 174.408 18.8516 174.408 19.3243C174.408 20.7405 173.201 23.5432 171.429 23.5432C169.856 23.4589 168.309 23.3773 165.948 23.3773C165.441 23.3773 164.916 23.3727 164.375 23.3709C162.177 23.3579 159.794 23.3421 157.742 23.5432C157.46 23.572 157.349 22.5997 157.573 22.5441L157.733 22.5024L157.743 22.4932Z" fill="url(#paint6_linear_110_43)"/>
<path fill-rule="evenodd" clip-rule="evenodd" d="M189.622 16.4532L193.95 21.9512C195.639 24.0894 198.079 24.1756 199.851 23.5898C200.02 23.5342 200.077 22.7844 199.851 22.7844C199.233 22.7844 198.39 22.4795 197.518 21.3941L193.33 16.2038C192.091 14.6783 191.277 14.2046 190.153 14.2046V14.0675C192.513 13.9294 195.156 12.3463 195.156 9.1265C195.156 5.71111 192.318 3.98998 188.074 3.98998C187.472 3.98998 186.751 4.02335 185.955 4.05949C184.965 4.10491 183.856 4.15681 182.704 4.15681C181.624 4.16609 180.545 4.11038 179.471 3.98998C179.218 3.96125 179.078 4.87881 179.303 4.93442C180.652 5.29403 181.636 5.82234 181.636 7.6547V20.0345C181.636 21.7816 180.737 22.3367 179.303 22.5369C179.078 22.5638 179.247 23.4804 179.471 23.4804H187.988C188.212 23.4804 188.354 22.5657 188.156 22.5369C186.358 22.3145 185.009 21.9808 185.009 20.0345V14.6495C186.98 14.6773 188.413 14.8989 189.622 16.4532ZM191.616 9.87261C191.616 12.6476 190.015 13.3696 185.827 13.3696H185.011V7.65191C185.011 6.09761 185.544 5.42751 187.203 5.42751C189.705 5.43492 191.616 6.90488 191.616 9.87632V9.87261Z" fill="url(#paint7_linear_110_43)"/>
</g>
<g style="mix-blend-mode:screen">
<path fill-rule="evenodd" clip-rule="evenodd" d="M152.452 32.1246C152.325 32.1246 152.265 32.1895 152.265 32.322V33.0302C152.265 33.1158 152.24 33.1996 152.192 33.2711C152.143 33.3494 152.071 33.4108 151.985 33.4472C151.955 33.4549 151.928 33.4722 151.908 33.4965C151.889 33.5208 151.878 33.5507 151.877 33.5816V33.8513C151.876 33.8659 151.879 33.8805 151.885 33.8939C151.891 33.9073 151.9 33.9191 151.912 33.9283C151.923 33.9372 151.937 33.943 151.951 33.9453C151.965 33.9476 151.98 33.9462 151.993 33.9412C152.21 33.8997 152.408 33.7901 152.556 33.6289C152.714 33.4525 152.797 33.2227 152.787 32.9875V32.322C152.787 32.1895 152.723 32.1246 152.6 32.1246H152.452ZM86.1407 32.4425H85.1845C84.8551 32.4302 84.5337 32.5441 84.2874 32.7605C84.1756 32.8546 84.0859 32.9717 84.0246 33.1036C83.9634 33.2355 83.932 33.379 83.9327 33.5242V36.3974C83.932 36.5425 83.9634 36.686 84.0246 36.8179C84.0859 36.9498 84.1756 37.0669 84.2874 37.1611C84.5341 37.3767 84.8552 37.4905 85.1845 37.479H86.1407C86.4641 37.4907 86.7792 37.3766 87.0181 37.1611C87.128 37.0658 87.2158 36.9482 87.2757 36.8165C87.3357 36.6847 87.3662 36.5418 87.3653 36.3974V33.5242C87.3662 33.3797 87.3357 33.2368 87.2757 33.105C87.2158 32.9733 87.128 32.8558 87.0181 32.7605C86.7792 32.545 86.4641 32.4308 86.1407 32.4425ZM86.8267 36.3019C86.8293 36.3962 86.8116 36.4899 86.7749 36.577C86.7382 36.664 86.6833 36.7424 86.6137 36.807C86.4719 36.9389 86.2829 37.0099 86.0882 37.0044H85.2164C85.0217 37.0099 84.8327 36.9389 84.6909 36.807C84.6211 36.7426 84.566 36.6642 84.5293 36.5771C84.4926 36.49 84.4751 36.3962 84.4779 36.3019V33.6298C84.4751 33.5355 84.4926 33.4417 84.5293 33.3546C84.566 33.2675 84.6211 33.1891 84.6909 33.1247C84.833 32.9932 85.0218 32.9223 85.2164 32.9273H86.0882C86.2828 32.9223 86.4716 32.9932 86.6137 33.1247C86.6833 33.1893 86.7382 33.2677 86.7749 33.3547C86.8116 33.4418 86.8293 33.5355 86.8267 33.6298V36.3019ZM66.2937 32.64C66.2791 32.5839 66.2452 32.5347 66.1977 32.5008C66.1502 32.467 66.0922 32.4506 66.0338 32.4546H65.8827C65.8244 32.4512 65.7666 32.4677 65.7193 32.5015C65.6719 32.5353 65.6378 32.5842 65.6228 32.64L64.0068 37.2315C63.9979 37.2565 63.9953 37.2833 63.9994 37.3095C64.0035 37.3357 64.0141 37.3605 64.0303 37.3817C64.0457 37.4024 64.0662 37.4191 64.0898 37.4301C64.1134 37.4411 64.1394 37.4461 64.1654 37.4447H64.3165C64.3707 37.4463 64.4236 37.4283 64.4654 37.3942C64.5072 37.3601 64.535 37.3122 64.5436 37.2593L64.995 35.9766H66.9177L67.3691 37.2593C67.3831 37.3142 67.4159 37.3627 67.4619 37.3964C67.5079 37.4302 67.5643 37.4472 67.6215 37.4447H67.7567C67.7838 37.4462 67.8108 37.4404 67.8348 37.4278C67.8588 37.4152 67.8788 37.3964 67.8927 37.3733C67.9078 37.3501 67.9164 37.3235 67.9178 37.296C67.9191 37.2685 67.913 37.2411 67.9002 37.2167L66.2937 32.64ZM65.1385 35.49L65.9587 33.1451L66.7667 35.49H65.1385ZM74.2109 36.9664H73.9163V32.69C73.9198 32.662 73.9168 32.6336 73.9075 32.607C73.8982 32.5803 73.8829 32.5561 73.8627 32.5362C73.8425 32.5163 73.818 32.5012 73.7911 32.492C73.7641 32.4828 73.7353 32.4799 73.707 32.4833H72.002C71.9736 32.4799 71.9449 32.4828 71.9179 32.492C71.8909 32.5012 71.8664 32.5163 71.8462 32.5362C71.8261 32.5561 71.8108 32.5803 71.8015 32.607C71.7922 32.6336 71.7892 32.662 71.7927 32.69C71.7401 34.2965 71.5015 35.7226 71.0767 36.9683H70.7511C70.724 36.9646 70.6964 36.9671 70.6705 36.9757C70.6445 36.9844 70.621 36.9988 70.6017 37.018C70.5824 37.0371 70.5679 37.0604 70.5593 37.086C70.5507 37.1117 70.5482 37.139 70.5521 37.1657V38.1305C70.5521 38.2631 70.6159 38.328 70.7398 38.328H70.8834C70.9108 38.3321 70.9387 38.3299 70.9651 38.3215C70.9914 38.3131 71.0154 38.2987 71.0352 38.2795C71.055 38.2604 71.0699 38.2369 71.0789 38.2111C71.0879 38.1852 71.0907 38.1577 71.087 38.1305V37.4493H73.8665V38.1231C73.8629 38.1502 73.8656 38.1778 73.8746 38.2037C73.8836 38.2295 73.8986 38.253 73.9184 38.2721C73.9381 38.2913 73.9621 38.3056 73.9885 38.314C74.0148 38.3224 74.0428 38.3247 74.0702 38.3206H74.2128C74.24 38.3244 74.2677 38.322 74.2937 38.3134C74.3198 38.3049 74.3434 38.2905 74.3628 38.2713C74.3822 38.2521 74.3968 38.2288 74.4055 38.203C74.4142 38.1773 74.4166 38.15 74.4127 38.1231V37.1611C74.4127 37.0295 74.3432 36.9636 74.2053 36.9636L74.2109 36.9664ZM73.3664 36.9664H71.6041C72.023 35.6713 72.2579 34.3251 72.3022 32.9662H73.3664V36.9664ZM80.3358 34.476C80.2472 34.6208 80.1258 34.7432 79.9811 34.8338C80.2166 34.9021 80.4242 35.0422 80.5742 35.2342C80.7222 35.4187 80.8023 35.6475 80.8013 35.883V36.2472C80.8038 36.4046 80.7743 36.5609 80.7147 36.7068C80.6551 36.8528 80.5664 36.9855 80.4541 37.0971C80.3406 37.2131 80.2039 37.3043 80.0526 37.365C79.9014 37.4257 79.7389 37.4544 79.5757 37.4493H77.6614C77.5216 37.4493 77.454 37.3835 77.454 37.2519V32.69C77.4504 32.6624 77.4532 32.6344 77.4624 32.6081C77.4716 32.5818 77.4869 32.5579 77.507 32.5384C77.5271 32.5189 77.5515 32.5043 77.5783 32.4957C77.6051 32.4871 77.6335 32.4848 77.6614 32.4889H79.2463C79.4072 32.4838 79.5674 32.5105 79.7176 32.5675C79.8678 32.6245 80.0049 32.7106 80.1209 32.8207C80.2311 32.9214 80.3186 33.0438 80.3779 33.18C80.4372 33.3161 80.467 33.4631 80.4653 33.6113V34.0144C80.4662 34.1752 80.4228 34.3332 80.3396 34.4714L80.3358 34.476ZM79.7099 33.159C79.5646 33.034 79.377 32.9678 79.1844 32.9736H77.9927V34.6493H79.2041C79.3923 34.6544 79.5753 34.588 79.7155 34.464C79.7831 34.4047 79.8367 34.3314 79.8726 34.2494C79.9084 34.1674 79.9256 34.0787 79.9229 33.9894V33.6298C79.9261 33.5402 79.9089 33.451 79.8727 33.3687C79.8365 33.2865 79.7822 33.2132 79.7137 33.1544L79.7099 33.159ZM80.0412 36.7736C80.1109 36.709 80.166 36.6305 80.2027 36.5432C80.2394 36.456 80.257 36.362 80.2542 36.2676V35.8663C80.2572 35.7679 80.2386 35.67 80.1995 35.5794C80.1605 35.4888 80.102 35.4077 80.028 35.3417C79.871 35.2019 79.6651 35.1277 79.4537 35.135H77.9964V36.9664H79.5157C79.6128 36.9692 79.7096 36.953 79.8004 36.9188C79.8912 36.8846 79.9743 36.8331 80.0449 36.7672L80.0412 36.7736ZM93.8055 32.6956L92.457 34.9051L94.1142 37.263C94.1291 37.2816 94.138 37.3042 94.1397 37.3279C94.1414 37.3515 94.1358 37.3751 94.1236 37.3955C94.1068 37.4148 94.0853 37.4296 94.0613 37.4387C94.0372 37.4477 94.0112 37.4507 93.9857 37.4475H93.814C93.7509 37.4498 93.6885 37.4345 93.6339 37.4034C93.5793 37.3722 93.5347 37.3264 93.5052 37.2714L92.0404 35.1721H91.2531V37.2445C91.2531 37.3761 91.1905 37.4419 91.0654 37.4419H90.9143C90.8872 37.4458 90.8595 37.4434 90.8334 37.4348C90.8074 37.4263 90.7837 37.4118 90.7643 37.3927C90.7449 37.3735 90.7303 37.3501 90.7216 37.3244C90.713 37.2987 90.7105 37.2713 90.7144 37.2445V32.6826C90.7103 32.6556 90.7125 32.6279 90.721 32.6019C90.7295 32.5759 90.7441 32.5522 90.7635 32.5327C90.7829 32.5131 90.8066 32.4983 90.8328 32.4895C90.859 32.4806 90.8869 32.4779 90.9143 32.4815H91.0654C91.193 32.4815 91.2531 32.5491 91.2531 32.6826V34.6855H91.986L93.2059 32.6613C93.2303 32.6065 93.2706 32.5602 93.3217 32.5282C93.3729 32.4962 93.4325 32.4799 93.493 32.4815H93.6657C93.6922 32.4765 93.7196 32.4795 93.7443 32.4901C93.769 32.5006 93.79 32.5183 93.8045 32.5407C93.8191 32.5631 93.8265 32.5893 93.8258 32.6159C93.8252 32.6425 93.8164 32.6683 93.8008 32.69L93.8055 32.6956ZM99.2388 32.6427C99.2241 32.5868 99.1901 32.5377 99.1426 32.5038C99.0952 32.47 99.0373 32.4536 98.9789 32.4574H98.8278C98.7695 32.4539 98.7117 32.4705 98.6644 32.5043C98.617 32.5381 98.5829 32.587 98.5679 32.6427L96.9501 37.2343C96.9412 37.2592 96.9386 37.286 96.9426 37.3121C96.9465 37.3383 96.9568 37.3631 96.9726 37.3844C96.9882 37.4053 97.0088 37.422 97.0325 37.433C97.0563 37.444 97.0825 37.449 97.1087 37.4475H97.2597C97.3139 37.449 97.3668 37.4311 97.4086 37.397C97.4504 37.3629 97.4782 37.3149 97.4868 37.2621L97.9382 35.9794H99.861L100.312 37.2621C100.326 37.3171 100.359 37.3656 100.405 37.3994C100.451 37.4332 100.507 37.4502 100.565 37.4475H100.7C100.727 37.449 100.754 37.4432 100.778 37.4306C100.802 37.418 100.822 37.3992 100.836 37.3761C100.851 37.3529 100.86 37.3263 100.861 37.2988C100.862 37.2713 100.856 37.2439 100.843 37.2195L99.2369 32.6446L99.2388 32.6427ZM98.0836 35.4928L98.9038 33.1479L99.7118 35.4928H98.0836ZM103.057 32.4796H105.872C105.998 32.4796 106.06 32.5463 106.06 32.6807V32.7734C106.064 32.799 106.062 32.8252 106.054 32.8498C106.046 32.8745 106.032 32.897 106.014 32.9157C105.996 32.9344 105.974 32.9487 105.949 32.9577C105.925 32.9666 105.898 32.9698 105.872 32.9671H104.77V37.2445C104.774 37.2713 104.771 37.2987 104.763 37.3244C104.754 37.3501 104.739 37.3735 104.72 37.3927C104.7 37.4118 104.677 37.4263 104.651 37.4348C104.625 37.4434 104.597 37.4458 104.57 37.4419H104.426C104.4 37.4438 104.374 37.4399 104.349 37.4305C104.325 37.421 104.303 37.4063 104.285 37.3874C104.267 37.3684 104.254 37.3458 104.246 37.321C104.238 37.2963 104.236 37.2701 104.24 37.2445V32.9606H103.067C103.041 32.9643 103.014 32.9619 102.988 32.9535C102.963 32.945 102.939 32.9309 102.92 32.9121C102.901 32.8933 102.887 32.8704 102.879 32.8452C102.87 32.82 102.868 32.7932 102.871 32.7669V32.6742C102.869 32.5436 102.934 32.4768 103.065 32.4768L103.057 32.4796ZM111.033 32.4453H110.179C109.849 32.433 109.528 32.5469 109.281 32.7632C109.17 32.8574 109.08 32.9745 109.019 33.1064C108.957 33.2383 108.926 33.3818 108.927 33.5269V36.4001C108.926 36.5452 108.957 36.6888 109.019 36.8207C109.08 36.9526 109.17 37.0697 109.281 37.1638C109.528 37.3795 109.849 37.4933 110.179 37.4818H111.033C111.357 37.4927 111.672 37.3786 111.912 37.1638C112.022 37.0687 112.11 36.9512 112.17 36.8195C112.23 36.6877 112.261 36.5446 112.26 36.4001V36.0155C112.26 35.9024 112.194 35.8449 112.061 35.8449H111.883C111.772 35.8449 111.718 35.9024 111.718 36.0155V36.2991C111.72 36.3934 111.703 36.4872 111.666 36.5743C111.629 36.6614 111.574 36.7398 111.505 36.8042C111.362 36.9357 111.174 37.0066 110.979 37.0016H110.211C110.017 37.0066 109.828 36.9357 109.686 36.8042C109.616 36.7397 109.561 36.6613 109.525 36.5742C109.488 36.4871 109.47 36.3934 109.473 36.2991V33.6298C109.47 33.5355 109.488 33.4418 109.525 33.3547C109.561 33.2677 109.616 33.1893 109.686 33.1247C109.828 32.9932 110.017 32.9223 110.211 32.9273H110.979C111.174 32.9223 111.362 32.9932 111.505 33.1247C111.574 33.1891 111.629 33.2675 111.666 33.3546C111.703 33.4417 111.72 33.5355 111.718 33.6298V33.8866C111.714 33.9087 111.716 33.9314 111.723 33.9526C111.73 33.9739 111.743 33.9933 111.759 34.0092C111.775 34.025 111.794 34.0369 111.816 34.044C111.837 34.051 111.86 34.053 111.883 34.0497H112.07C112.194 34.0497 112.258 33.9903 112.258 33.8736V33.5306C112.259 33.3861 112.228 33.2431 112.168 33.1113C112.108 32.9795 112.02 32.8621 111.91 32.7669C111.67 32.5522 111.355 32.4381 111.032 32.449L111.033 32.4453ZM116.251 34.5548H117.763C117.934 34.549 118.105 34.5781 118.265 34.6403C118.424 34.7025 118.569 34.7964 118.691 34.9163C118.808 35.0289 118.901 35.1638 118.964 35.313C119.026 35.4621 119.058 35.6223 119.056 35.7838V36.2472C119.058 36.4046 119.029 36.5609 118.969 36.7068C118.91 36.8528 118.821 36.9855 118.709 37.0971C118.595 37.2131 118.458 37.3043 118.307 37.365C118.156 37.4257 117.993 37.4544 117.83 37.4493H115.916C115.776 37.4493 115.709 37.3835 115.709 37.2519V32.6826C115.704 32.6556 115.706 32.628 115.715 32.602C115.723 32.5759 115.738 32.5522 115.757 32.5326C115.776 32.5131 115.8 32.4983 115.826 32.4894C115.852 32.4805 115.88 32.4778 115.907 32.4815H116.063C116.192 32.4815 116.251 32.5482 116.251 32.6826V34.5548ZM118.296 36.7699C118.365 36.7053 118.421 36.6268 118.457 36.5395C118.494 36.4523 118.512 36.3583 118.509 36.2639V35.7699C118.512 35.6707 118.492 35.5721 118.453 35.4809C118.413 35.3897 118.354 35.308 118.28 35.2416C118.124 35.101 117.919 35.0261 117.708 35.033H116.251V36.9664H117.77C117.867 36.9693 117.964 36.9532 118.055 36.919C118.146 36.8848 118.23 36.8332 118.3 36.7672L118.296 36.7699ZM124.02 34.9051L125.369 32.6956C125.382 32.6728 125.389 32.6471 125.389 32.621C125.389 32.5948 125.382 32.5692 125.369 32.5463C125.353 32.5255 125.332 32.5092 125.307 32.4988C125.283 32.4884 125.256 32.4844 125.229 32.487H125.072C125.012 32.4863 124.954 32.503 124.904 32.535C124.854 32.567 124.814 32.6128 124.79 32.6668L123.565 34.691H122.833V32.6882C122.833 32.5547 122.768 32.487 122.645 32.487H122.494C122.467 32.4834 122.439 32.4861 122.413 32.495C122.386 32.5039 122.363 32.5187 122.343 32.5382C122.324 32.5577 122.309 32.5814 122.301 32.6075C122.292 32.6335 122.29 32.6611 122.294 32.6882V37.2445C122.29 37.2713 122.293 37.2987 122.301 37.3244C122.31 37.3501 122.325 37.3735 122.344 37.3927C122.363 37.4118 122.387 37.4263 122.413 37.4348C122.439 37.4434 122.467 37.4458 122.494 37.4419H122.632C122.76 37.4419 122.82 37.3761 122.82 37.2445V35.1693H123.606L125.07 37.2658C125.099 37.3209 125.143 37.3668 125.198 37.398C125.252 37.4291 125.315 37.4444 125.378 37.4419H125.55C125.576 37.4452 125.602 37.4422 125.626 37.4331C125.65 37.424 125.671 37.4092 125.687 37.39C125.7 37.3695 125.705 37.3459 125.703 37.3223C125.702 37.2987 125.693 37.276 125.678 37.2574L124.021 34.8996L124.02 34.9051ZM129.339 36.9646H131.547C131.674 36.9646 131.734 37.0295 131.734 37.162V37.2547C131.737 37.2797 131.734 37.305 131.726 37.3288C131.717 37.3526 131.704 37.3741 131.686 37.3919C131.668 37.4098 131.646 37.4233 131.622 37.4317C131.598 37.44 131.572 37.4429 131.547 37.4401H129.013C128.874 37.4401 128.806 37.3742 128.806 37.2426V32.6807C128.802 32.6529 128.805 32.6247 128.814 32.5982C128.824 32.5717 128.839 32.5477 128.859 32.5278C128.879 32.5079 128.903 32.4927 128.93 32.4834C128.956 32.4741 128.985 32.4709 129.013 32.4741H131.471C131.601 32.4741 131.667 32.5408 131.667 32.6752V32.7679C131.671 32.7942 131.668 32.821 131.66 32.8462C131.651 32.8714 131.637 32.8943 131.618 32.913C131.599 32.9318 131.576 32.946 131.55 32.9544C131.525 32.9628 131.497 32.9653 131.471 32.9616H129.349V34.6299H131.285C131.418 34.6299 131.485 34.6917 131.485 34.8152V34.9079C131.489 34.9348 131.486 34.9621 131.478 34.9878C131.469 35.0136 131.454 35.0369 131.435 35.0561C131.416 35.0753 131.392 35.0897 131.366 35.0983C131.34 35.1068 131.312 35.1092 131.285 35.1053H129.349L129.339 36.9646ZM141.644 32.4453H140.696C140.366 32.4328 140.045 32.5467 139.798 32.7632C139.686 32.8574 139.597 32.9745 139.535 33.1064C139.474 33.2383 139.443 33.3818 139.443 33.5269V36.4001C139.443 36.5452 139.474 36.6888 139.535 36.8207C139.597 36.9526 139.686 37.0697 139.798 37.1638C140.045 37.3796 140.367 37.4935 140.696 37.4818H141.651C141.975 37.4934 142.29 37.3792 142.53 37.1638C142.639 37.0683 142.727 36.9508 142.787 36.819C142.846 36.6873 142.877 36.5445 142.876 36.4001V33.5269C142.877 33.3826 142.846 33.2398 142.787 33.108C142.727 32.9763 142.639 32.8587 142.53 32.7632C142.29 32.5478 141.975 32.4337 141.651 32.4453H141.644ZM142.33 36.3047C142.333 36.399 142.315 36.4928 142.278 36.5799C142.242 36.667 142.187 36.7454 142.117 36.8098C141.975 36.9417 141.786 37.0127 141.591 37.0072H140.72C140.525 37.0127 140.336 36.9417 140.194 36.8098C140.124 36.7454 140.069 36.667 140.032 36.5799C139.996 36.4928 139.978 36.399 139.981 36.3047V33.6298C139.978 33.5355 139.996 33.4417 140.032 33.3546C140.069 33.2675 140.124 33.1891 140.194 33.1247C140.336 32.9932 140.525 32.9223 140.72 32.9273H141.591C141.786 32.9223 141.975 32.9932 142.117 33.1247C142.188 33.1884 142.245 33.2664 142.283 33.3535C142.321 33.4407 142.34 33.5349 142.338 33.6298L142.33 36.3047ZM146.761 34.5548H148.27C148.441 34.549 148.613 34.5782 148.772 34.6403C148.932 34.7025 149.077 34.7964 149.199 34.9163C149.316 35.0288 149.409 35.1638 149.471 35.313C149.534 35.4621 149.565 35.6223 149.563 35.7838V36.2472C149.565 36.4046 149.536 36.5609 149.476 36.7068C149.417 36.8528 149.328 36.9855 149.216 37.0971C149.103 37.2132 148.966 37.3045 148.815 37.3651C148.664 37.4258 148.501 37.4545 148.338 37.4493H146.423C146.283 37.4493 146.216 37.3835 146.216 37.2519V32.69C146.212 32.6622 146.215 32.634 146.224 32.6075C146.234 32.581 146.249 32.5569 146.269 32.537C146.289 32.5171 146.313 32.502 146.34 32.4927C146.366 32.4834 146.395 32.4802 146.423 32.4833H148.625C148.754 32.4833 148.813 32.5501 148.813 32.6844V32.7771C148.813 32.9115 148.749 32.9782 148.625 32.9782H146.767L146.761 34.5548ZM148.806 36.7699C148.875 36.7052 148.93 36.6266 148.967 36.5394C149.004 36.4522 149.021 36.3583 149.019 36.2639V35.7699C149.021 35.6708 149.002 35.5722 148.963 35.481C148.923 35.3899 148.864 35.3082 148.79 35.2416C148.634 35.1012 148.429 35.0263 148.218 35.033H146.761V36.9664H148.28C148.378 36.9697 148.475 36.9538 148.567 36.9195C148.658 36.8853 148.742 36.8336 148.813 36.7672L148.806 36.7699ZM157.198 32.4453H158.153C158.477 32.4333 158.792 32.5475 159.031 32.7632C159.141 32.8587 159.228 32.9763 159.288 33.108C159.348 33.2398 159.378 33.3826 159.378 33.5269V33.7068C159.378 33.8291 159.318 33.8921 159.199 33.8921H159.004C158.893 33.8921 158.839 33.8346 158.839 33.7216V33.6011C158.841 33.51 158.824 33.4195 158.787 33.3359C158.75 33.2523 158.695 33.1777 158.626 33.1173C158.482 32.9894 158.294 32.9213 158.1 32.9273H157.229C157.034 32.9223 156.845 32.9932 156.703 33.1247C156.633 33.1891 156.578 33.2675 156.542 33.3546C156.505 33.4417 156.487 33.5355 156.49 33.6298V34.6373H158.08C158.106 34.6335 158.132 34.6355 158.157 34.6434C158.182 34.6512 158.205 34.6646 158.224 34.6825C158.242 34.7004 158.257 34.7224 158.266 34.7467C158.275 34.771 158.278 34.797 158.275 34.8227V34.9228C158.278 34.9484 158.275 34.9744 158.266 34.9987C158.257 35.023 158.242 35.045 158.224 35.0629C158.205 35.0808 158.182 35.0942 158.157 35.1021C158.132 35.1099 158.106 35.112 158.08 35.1081H156.49V36.2973C156.487 36.3916 156.505 36.4854 156.542 36.5725C156.578 36.6596 156.633 36.7379 156.703 36.8024C156.845 36.9339 157.034 37.0048 157.229 36.9998H158.1C158.293 37.007 158.481 36.9406 158.626 36.8144C158.695 36.754 158.75 36.6794 158.787 36.5958C158.824 36.5123 158.841 36.4217 158.839 36.3306V36.1749C158.836 36.1528 158.838 36.1303 158.845 36.1091C158.852 36.0879 158.864 36.0687 158.88 36.053C158.896 36.0372 158.916 36.0254 158.937 36.0184C158.959 36.0114 158.982 36.0095 159.004 36.0127H159.186C159.314 36.0127 159.374 36.0665 159.374 36.1749V36.4029C159.375 36.5472 159.344 36.6901 159.284 36.8218C159.225 36.9535 159.137 37.0711 159.028 37.1666C158.788 37.382 158.473 37.4961 158.149 37.4845H157.194C156.865 37.4961 156.544 37.3823 156.297 37.1666C156.185 37.0725 156.095 36.9554 156.034 36.8235C155.973 36.6916 155.941 36.548 155.942 36.4029V33.5297C155.941 33.3846 155.973 33.2411 156.034 33.1092C156.095 32.9773 156.185 32.8601 156.297 32.766C156.545 32.5449 156.871 32.4288 157.205 32.4425L157.198 32.4453ZM165.873 36.9646H165.579V32.6882C165.582 32.6601 165.579 32.6316 165.57 32.6049C165.56 32.5782 165.545 32.5539 165.525 32.5339C165.504 32.514 165.48 32.4989 165.453 32.4898C165.426 32.4807 165.397 32.4779 165.368 32.4815H163.663C163.635 32.478 163.606 32.481 163.579 32.4901C163.552 32.4993 163.528 32.5144 163.508 32.5344C163.487 32.5543 163.472 32.5785 163.463 32.6051C163.453 32.6318 163.45 32.6602 163.454 32.6882C163.401 34.2947 163.163 35.7208 162.739 36.9664H162.42C162.393 36.9625 162.365 36.965 162.339 36.9735C162.313 36.9821 162.289 36.9965 162.27 37.0157C162.25 37.0348 162.236 37.0582 162.227 37.0839C162.219 37.1097 162.216 37.137 162.22 37.1638V38.1287C162.22 38.2612 162.284 38.3261 162.408 38.3261H162.551C162.579 38.3302 162.607 38.328 162.633 38.3196C162.659 38.3112 162.683 38.2969 162.703 38.2777C162.723 38.2585 162.738 38.2351 162.747 38.2092C162.756 38.1834 162.759 38.1558 162.755 38.1287V37.4475H165.534V38.1213C165.531 38.1484 165.534 38.176 165.543 38.2018C165.551 38.2277 165.566 38.2511 165.586 38.2703C165.606 38.2894 165.63 38.3038 165.656 38.3122C165.683 38.3206 165.711 38.3228 165.738 38.3187H165.882C165.909 38.3224 165.936 38.3199 165.962 38.3113C165.988 38.3026 166.012 38.2882 166.031 38.269C166.05 38.2499 166.065 38.2266 166.073 38.2009C166.082 38.1753 166.084 38.148 166.081 38.1213V37.1611C166.081 37.0295 166.011 36.9636 165.873 36.9636V36.9646ZM165.029 36.9646H163.263C163.682 35.6693 163.916 34.3231 163.961 32.9644H165.029V36.9646ZM172.202 32.4796H172.367C172.497 32.4796 172.563 32.5463 172.563 32.6807V37.2445C172.567 37.271 172.565 37.2981 172.556 37.3235C172.548 37.349 172.534 37.3723 172.515 37.3914C172.496 37.4105 172.472 37.425 172.447 37.4338C172.421 37.4426 172.394 37.4453 172.367 37.4419H172.216C172.091 37.4419 172.028 37.3761 172.028 37.2445V35.1128H169.675V37.2445C169.675 37.3761 169.612 37.4419 169.487 37.4419H169.336C169.309 37.4458 169.281 37.4434 169.255 37.4348C169.229 37.4263 169.205 37.4118 169.186 37.3927C169.166 37.3735 169.152 37.3501 169.143 37.3244C169.134 37.2987 169.132 37.2713 169.136 37.2445V32.6752C169.132 32.6481 169.134 32.6205 169.143 32.5945C169.151 32.5685 169.166 32.5448 169.185 32.5252C169.204 32.5057 169.228 32.4909 169.254 32.482C169.28 32.4732 169.308 32.4704 169.336 32.4741H169.487C169.615 32.4741 169.675 32.5408 169.675 32.6752V34.6354H172.028V32.6752C172.022 32.5436 172.085 32.4768 172.214 32.4768L172.202 32.4796ZM177.992 32.6427C177.977 32.5869 177.943 32.5379 177.895 32.5041C177.848 32.4702 177.79 32.4538 177.732 32.4574H177.581C177.522 32.4538 177.464 32.4702 177.417 32.5041C177.37 32.5379 177.336 32.5869 177.321 32.6427L175.702 37.2343C175.693 37.2593 175.691 37.286 175.695 37.3122C175.699 37.3383 175.71 37.3631 175.725 37.3844C175.741 37.4053 175.762 37.422 175.785 37.433C175.809 37.444 175.835 37.449 175.861 37.4475H176.027C176.081 37.449 176.133 37.431 176.175 37.3969C176.217 37.3628 176.244 37.3149 176.253 37.2621L176.705 35.9794H178.628L179.079 37.2621C179.093 37.317 179.125 37.3655 179.171 37.3993C179.217 37.4332 179.273 37.4502 179.331 37.4475H179.467C179.494 37.4492 179.521 37.4434 179.545 37.4308C179.568 37.4182 179.588 37.3992 179.602 37.3761C179.617 37.3531 179.626 37.3264 179.628 37.2989C179.629 37.2714 179.623 37.2439 179.61 37.2195L178.004 32.6446L177.992 32.6427ZM176.835 35.4928L177.654 33.1479L178.462 35.4928H176.835ZM185.843 32.4796H185.994C186.124 32.4796 186.189 32.5463 186.189 32.6807V37.2445C186.194 37.2709 186.191 37.298 186.183 37.3235C186.175 37.349 186.161 37.3723 186.142 37.3914C186.123 37.4106 186.1 37.4251 186.074 37.4339C186.048 37.4426 186.021 37.4454 185.994 37.4419H185.843C185.715 37.4419 185.651 37.3761 185.651 37.2445V35.1128H183.298V37.2445C183.298 37.3761 183.234 37.4419 183.11 37.4419H182.971C182.944 37.4458 182.916 37.4434 182.89 37.4348C182.864 37.4263 182.84 37.4118 182.821 37.3927C182.801 37.3735 182.787 37.3501 182.778 37.3244C182.769 37.2987 182.767 37.2713 182.771 37.2445V32.6752C182.767 32.6481 182.769 32.6205 182.777 32.5945C182.786 32.5685 182.8 32.5448 182.82 32.5252C182.839 32.5057 182.863 32.4909 182.889 32.482C182.915 32.4732 182.943 32.4704 182.971 32.4741H183.122C183.25 32.4741 183.309 32.5408 183.309 32.6752V34.6354H185.662V32.6752C185.667 32.5436 185.73 32.4768 185.859 32.4768L185.843 32.4796ZM192.865 32.4796H192.73C192.601 32.4796 192.538 32.5463 192.538 32.6807V34.641H190.185V32.6807C190.185 32.5463 190.121 32.4796 189.993 32.4796H189.842C189.814 32.476 189.786 32.4787 189.76 32.4876C189.734 32.4965 189.71 32.5113 189.691 32.5308C189.671 32.5503 189.657 32.574 189.648 32.6C189.64 32.6261 189.638 32.6537 189.642 32.6807V37.2445C189.638 37.2713 189.64 37.2987 189.649 37.3244C189.658 37.3501 189.672 37.3735 189.692 37.3927C189.711 37.4118 189.735 37.4263 189.761 37.4348C189.787 37.4434 189.814 37.4458 189.842 37.4419H189.993C190.121 37.4419 190.185 37.3761 190.185 37.2445V35.1128H192.542V37.2445C192.542 37.3761 192.606 37.4419 192.735 37.4419H192.886C192.913 37.4454 192.94 37.4426 192.966 37.4339C192.991 37.4251 193.014 37.4106 193.033 37.3914C193.052 37.3723 193.066 37.349 193.075 37.3235C193.083 37.298 193.085 37.2709 193.081 37.2445V32.6752C193.076 32.5436 193.011 32.4768 192.881 32.4768L192.865 32.4796ZM197.646 32.4796H199.445C199.472 32.4761 199.499 32.4786 199.524 32.4871C199.549 32.4956 199.573 32.5098 199.591 32.5286C199.61 32.5473 199.625 32.5702 199.633 32.5953C199.642 32.6204 199.644 32.6471 199.64 32.6733V37.2649C199.64 37.3881 199.575 37.4502 199.445 37.4502H199.299C199.273 37.4542 199.247 37.4521 199.222 37.4442C199.198 37.4363 199.175 37.4228 199.157 37.4047C199.139 37.3866 199.125 37.3645 199.117 37.3402C199.109 37.3159 199.107 37.2901 199.111 37.2649V35.5428H197.857L197.013 37.2371C196.994 37.2991 196.955 37.3533 196.901 37.3913C196.848 37.4293 196.784 37.449 196.718 37.4475H196.577C196.55 37.4501 196.523 37.4457 196.498 37.4347C196.474 37.4236 196.452 37.4063 196.437 37.3844C196.424 37.3604 196.417 37.3337 196.417 37.3066C196.417 37.2795 196.424 37.2528 196.437 37.2287L197.291 35.4928C197.037 35.4581 196.804 35.3352 196.634 35.1461C196.471 34.9822 196.378 34.7631 196.373 34.5335V33.5056C196.372 33.365 196.405 33.2262 196.468 33.1C196.531 32.9738 196.622 32.8636 196.735 32.7781C196.997 32.5708 197.326 32.4638 197.662 32.4768L197.646 32.4796ZM197.639 35.0599H199.111V32.9718H197.722C197.515 32.9632 197.31 33.0239 197.142 33.1442C197.07 33.1977 197.011 33.2678 196.972 33.3485C196.932 33.4292 196.913 33.5181 196.916 33.6076V34.4417C196.916 34.5259 196.935 34.6089 196.972 34.6848C197.009 34.7607 197.063 34.8274 197.129 34.8801C197.276 35.0014 197.463 35.0645 197.655 35.0571L197.639 35.0599Z" fill="url(#paint8_linear_110_43)"/>
</g>
<defs>
<linearGradient id="paint0_linear_110_43" x1="3.68231" y1="22.8762" x2="50.0051" y2="22.8762" gradientUnits="userSpaceOnUse">
<stop stop-color="#7E5619"/>
<stop offset="0.2" stop-color="#875E1A"/>
<stop offset="0.4" stop-color="#AB811A"/>
<stop offset="0.6" stop-color="#BC9415"/>
<stop offset="0.8" stop-color="#996F1B"/>
<stop offset="1" stop-color="#FFE361"/>
</linearGradient>
<linearGradient id="paint1_linear_110_43" x1="0" y1="23.1635" x2="53.8807" y2="23.1635" gradientUnits="userSpaceOnUse">
<stop stop-color="#F0EB8F"/>
<stop offset="0.12" stop-color="#9F8F4E"/>
<stop offset="0.2" stop-color="#F0EB8F"/>
<stop offset="0.52" stop-color="#9F8F4E"/>
<stop offset="0.78" stop-color="#F0EB8F"/>
<stop offset="0.91" stop-color="#9F8F4E"/>
<stop offset="1" stop-color="#9F8F4E"/>
</linearGradient>
<linearGradient id="paint2_linear_110_43" x1="134.641" y1="13.6511" x2="153.403" y2="13.6511" gradientUnits="userSpaceOnUse">
<stop stop-color="#9E6C1A"/>
<stop offset="0.2" stop-color="#875E1A"/>
<stop offset="0.4" stop-color="#AB811A"/>
<stop offset="0.6" stop-color="#BC9415"/>
<stop offset="0.8" stop-color="#996F1B"/>
<stop offset="1" stop-color="#FFE361"/>
</linearGradient>
<linearGradient id="paint3_linear_110_43" x1="63.9984" y1="13.76" x2="84.3794" y2="13.76" gradientUnits="userSpaceOnUse">
<stop stop-color="#9E6C1A"/>
<stop offset="0.2" stop-color="#875E1A"/>
<stop offset="0.4" stop-color="#AB811A"/>
<stop offset="0.6" stop-color="#BC9415"/>
<stop offset="0.8" stop-color="#996F1B"/>
<stop offset="1" stop-color="#FFE361"/>
</linearGradient>
<linearGradient id="paint4_linear_110_43" x1="88.1611" y1="13.7614" x2="105.116" y2="13.7614" gradientUnits="userSpaceOnUse">
<stop stop-color="#9E6C1A"/>
<stop offset="0.2" stop-color="#875E1A"/>
<stop offset="0.4" stop-color="#AB811A"/>
<stop offset="0.6" stop-color="#BC9415"/>
<stop offset="0.8" stop-color="#996F1B"/>
<stop offset="1" stop-color="#FFE361"/>
</linearGradient>
<linearGradient id="paint5_linear_110_43" x1="109.601" y1="13.7605" x2="130.584" y2="13.7605" gradientUnits="userSpaceOnUse">
<stop stop-color="#9E6C1A"/>
<stop offset="0.2" stop-color="#875E1A"/>
<stop offset="0.4" stop-color="#AB811A"/>
<stop offset="0.6" stop-color="#BC9415"/>
<stop offset="0.8" stop-color="#996F1B"/>
<stop offset="1" stop-color="#FFE361"/>
</linearGradient>
<linearGradient id="paint6_linear_110_43" x1="157.459" y1="13.7614" x2="174.413" y2="13.7614" gradientUnits="userSpaceOnUse">
<stop stop-color="#9E6C1A"/>
<stop offset="0.2" stop-color="#875E1A"/>
<stop offset="0.4" stop-color="#AB811A"/>
<stop offset="0.6" stop-color="#BC9415"/>
<stop offset="0.8" stop-color="#996F1B"/>
<stop offset="1" stop-color="#FFE361"/>
</linearGradient>
<linearGradient id="paint7_linear_110_43" x1="179.194" y1="13.9433" x2="200.003" y2="13.9433" gradientUnits="userSpaceOnUse">
<stop stop-color="#9E6C1A"/>
<stop offset="0.2" stop-color="#875E1A"/>
<stop offset="0.4" stop-color="#AB811A"/>
<stop offset="0.6" stop-color="#BC9415"/>
<stop offset="0.8" stop-color="#996F1B"/>
<stop offset="1" stop-color="#FFE361"/>
</linearGradient>
<linearGradient id="paint8_linear_110_43" x1="63.9984" y1="35.224" x2="199.656" y2="35.224" gradientUnits="userSpaceOnUse">
<stop stop-color="#875E1A"/>
<stop offset="0.2" stop-color="#AB811A"/>
<stop offset="0.41" stop-color="#FFE361"/>
<stop offset="0.6" stop-color="#BC9415"/>
<stop offset="0.8" stop-color="#996F1B"/>
<stop offset="1" stop-color="#FFE361"/>
</linearGradient>
</defs>
</svg>
