<svg width="121" height="34" viewBox="0 0 121 34" fill="none" xmlns="http://www.w3.org/2000/svg">
<path d="M35.4224 22.9062V11.3721H39.2657V19.7103H47.5777V22.91L35.4224 22.9062Z" fill="white"/>
<path d="M62.861 11.3721V17.8685C62.861 19.2258 62.593 20.3058 62.0571 21.1083C61.5211 21.9109 60.7539 22.4793 59.7553 22.8136C58.7572 23.1474 57.5097 23.3143 56.0126 23.3143C54.5155 23.3143 53.2679 23.1474 52.2698 22.8136C51.2717 22.4798 50.5045 21.9142 49.968 21.1167C49.4316 20.3192 49.1633 19.2364 49.1633 17.8685V11.3721H53.0067V17.7555C53.0067 18.5843 53.265 19.1821 53.7817 19.5487C54.2984 19.9154 55.0431 20.0987 56.0157 20.0987C56.9794 20.0987 57.722 19.9154 58.2434 19.5487C58.7648 19.1821 59.0247 18.5843 59.0231 17.7555V11.3721H62.861Z" fill="white"/>
<path d="M81.7948 22.9062H77.9515V15.0527H77.8618L74.8209 22.9062H71.9226L68.8387 14.9556H68.7342V22.9062H65.0999V11.3721H70.9986L73.3378 17.8518H73.4415L75.7355 11.3721H81.7987L81.7948 22.9062Z" fill="white"/>
<path d="M84.0286 22.9062V11.3721H87.8719V22.91L84.0286 22.9062Z" fill="white"/>
<path d="M103.283 12.522C104.579 13.5335 105.227 15.0847 105.227 17.1759C105.227 19.267 104.579 20.8183 103.283 21.8297C101.987 22.8411 100.063 23.3469 97.5127 23.3469C94.9697 23.3469 93.0505 22.8411 91.7551 21.8297C90.4597 20.8183 89.8109 19.267 89.8088 17.1759C89.8088 15.0863 90.4568 13.535 91.7527 12.522C93.0487 11.5091 94.9678 11.0034 97.5103 11.0049C100.063 11.0034 101.987 11.5091 103.283 12.522ZM100.132 19.4303C100.717 18.9074 101.01 18.1559 101.011 17.1759C101.011 16.1958 100.718 15.4443 100.132 14.9214C99.5465 14.399 98.6726 14.1378 97.5103 14.1378C96.348 14.1378 95.4765 14.399 94.8959 14.9214C94.3147 15.4443 94.0241 16.1958 94.0241 17.1759C94.0241 18.1559 94.3147 18.9074 94.8959 19.4303C95.477 19.9527 96.3485 20.214 97.5103 20.214C98.6721 20.214 99.546 19.9527 100.132 19.4303Z" fill="white"/>
<path d="M115.423 13.8962C115.001 13.6939 114.392 13.5928 113.598 13.5928C112.784 13.5928 112.203 13.6763 111.855 13.8431C111.507 14.01 111.334 14.255 111.334 14.5782C111.326 14.6915 111.351 14.8045 111.406 14.9046C111.461 15.0046 111.544 15.0876 111.645 15.1441C111.853 15.2624 112.211 15.3486 112.718 15.4028L117.052 15.7904C118.364 15.9087 119.35 16.2481 120.01 16.8084C120.67 17.3687 121 18.2145 121 19.3458C121 20.4124 120.734 21.2364 120.203 21.818C119.672 22.3996 118.892 22.8009 117.864 23.0219C116.835 23.2429 115.477 23.3534 113.79 23.3534C112.17 23.3534 110.859 23.2348 109.857 22.9976C108.855 22.7604 108.082 22.3348 107.54 21.7209C106.999 21.1075 106.709 20.2402 106.669 19.119H111.143C111.252 19.7334 111.528 20.1565 111.97 20.3881C112.412 20.6197 113.07 20.7355 113.944 20.7355C114.838 20.7355 115.481 20.6465 115.873 20.4685C116.266 20.2905 116.462 20.0124 116.461 19.6341C116.461 19.3215 116.347 19.094 116.119 18.9514C115.891 18.8088 115.548 18.7172 115.091 18.6768L110.92 18.2406C109.599 18.101 108.606 17.7723 107.941 17.2544C107.276 16.7366 106.943 15.9123 106.943 14.7815C106.943 13.8206 107.209 13.0638 107.74 12.5111C108.271 11.9583 109.031 11.5677 110.019 11.3391C111.007 11.113 112.245 11 113.735 11C115.215 11 116.447 11.1158 117.43 11.3474C118.413 11.579 119.18 11.9803 119.731 12.5513C120.283 13.1222 120.573 13.9033 120.602 14.8945H116.178C116.148 14.6801 116.063 14.4764 115.931 14.302C115.799 14.1276 115.625 13.9882 115.423 13.8962Z" fill="white"/>
<mask id="path-7-outside-1_17_1860" maskUnits="userSpaceOnUse" x="-1" y="4" width="32" height="27" fill="black">
<rect fill="white" x="-1" y="4" width="32" height="27"/>
<path fill-rule="evenodd" clip-rule="evenodd" d="M16.5505 26.6942C16.0799 26.7528 15.6001 26.7831 15.1131 26.7831C14.6225 26.7831 14.1392 26.7524 13.6653 26.6929C13.441 27.9275 12.7916 28.841 11.8672 29.1515C11.0977 29.4113 10.362 29.1777 10.2813 29.152L10.2796 29.1515C8.5467 28.5713 8.05392 26.0732 7.92611 24.2429C7.02255 23.5062 6.24031 22.6333 5.61278 21.6566C5.56337 21.8642 5.52447 22.0534 5.48888 22.2264C5.34259 22.9379 5.25232 23.3769 4.71853 23.7012C3.92241 24.1851 2.91967 23.9424 2.86665 23.9287C1.84051 23.6647 1.3906 22.7856 1.2791 22.5633C0.187467 20.4226 2.63429 17.8063 2.86665 17.5628C3.22202 17.1922 3.5889 16.8889 3.94346 16.6379C3.9263 16.3913 3.91758 16.1424 3.91758 15.8915C3.91758 9.87627 8.92997 4.99994 15.1131 4.99994C21.2962 4.99994 26.3086 9.87627 26.3086 15.8915C26.3086 16.1469 26.2995 16.4002 26.2817 16.6512C26.6298 16.8995 26.9893 17.1986 27.338 17.5628C27.5812 17.8063 30.0288 20.4226 28.9357 22.5633C28.8249 22.784 28.375 23.6632 27.3489 23.9287C27.2959 23.9424 26.2931 24.1851 25.497 23.7012C24.9661 23.3775 24.8759 22.9397 24.7298 22.2308C24.6945 22.0593 24.6559 21.872 24.607 21.6666C23.9778 22.6434 23.1939 23.5161 22.2885 24.2523C22.1599 26.0817 21.6659 28.5722 19.9359 29.1515L19.9343 29.152C19.8535 29.1777 19.1178 29.4113 18.3484 29.1515C17.4243 28.8411 16.775 27.9281 16.5505 26.6942Z"/>
</mask>
<path fill-rule="evenodd" clip-rule="evenodd" d="M16.5505 26.6942C16.0799 26.7528 15.6001 26.7831 15.1131 26.7831C14.6225 26.7831 14.1392 26.7524 13.6653 26.6929C13.441 27.9275 12.7916 28.841 11.8672 29.1515C11.0977 29.4113 10.362 29.1777 10.2813 29.152L10.2796 29.1515C8.5467 28.5713 8.05392 26.0732 7.92611 24.2429C7.02255 23.5062 6.24031 22.6333 5.61278 21.6566C5.56337 21.8642 5.52447 22.0534 5.48888 22.2264C5.34259 22.9379 5.25232 23.3769 4.71853 23.7012C3.92241 24.1851 2.91967 23.9424 2.86665 23.9287C1.84051 23.6647 1.3906 22.7856 1.2791 22.5633C0.187467 20.4226 2.63429 17.8063 2.86665 17.5628C3.22202 17.1922 3.5889 16.8889 3.94346 16.6379C3.9263 16.3913 3.91758 16.1424 3.91758 15.8915C3.91758 9.87627 8.92997 4.99994 15.1131 4.99994C21.2962 4.99994 26.3086 9.87627 26.3086 15.8915C26.3086 16.1469 26.2995 16.4002 26.2817 16.6512C26.6298 16.8995 26.9893 17.1986 27.338 17.5628C27.5812 17.8063 30.0288 20.4226 28.9357 22.5633C28.8249 22.784 28.375 23.6632 27.3489 23.9287C27.2959 23.9424 26.2931 24.1851 25.497 23.7012C24.9661 23.3775 24.8759 22.9397 24.7298 22.2308C24.6945 22.0593 24.6559 21.872 24.607 21.6666C23.9778 22.6434 23.1939 23.5161 22.2885 24.2523C22.1599 26.0817 21.6659 28.5722 19.9359 29.1515L19.9343 29.152C19.8535 29.1777 19.1178 29.4113 18.3484 29.1515C17.4243 28.8411 16.775 27.9281 16.5505 26.6942Z" fill="#313F2D"/>
<path d="M16.5505 26.6942L17.5343 26.5151L17.365 25.5849L16.4267 25.7018L16.5505 26.6942ZM13.6653 26.6929L13.7899 25.7007L12.8506 25.5827L12.6814 26.5141L13.6653 26.6929ZM11.8672 29.1515L11.5487 28.2036L11.5473 28.2041L11.8672 29.1515ZM10.2813 29.152L9.97809 30.105L9.97859 30.1051L10.2813 29.152ZM10.2796 29.1515L9.96211 30.0998L9.96926 30.1021L9.97644 30.1044L10.2796 29.1515ZM7.92611 24.2429L8.92368 24.1733L8.89352 23.7414L8.55803 23.4679L7.92611 24.2429ZM5.61278 21.6566L6.45408 21.1161L5.18401 19.1394L4.63996 21.4251L5.61278 21.6566ZM5.48888 22.2264L6.46839 22.4279V22.4279L5.48888 22.2264ZM4.71853 23.7012L4.19932 22.8465L4.19907 22.8467L4.71853 23.7012ZM2.86665 23.9287L3.11601 22.9603L3.1158 22.9603L2.86665 23.9287ZM1.2791 22.5633L2.17295 22.1149L2.16996 22.109L1.2791 22.5633ZM2.86665 17.5628L2.14483 16.8707L2.14319 16.8724L2.86665 17.5628ZM3.94346 16.6379L4.52133 17.454L4.98005 17.1292L4.94104 16.5685L3.94346 16.6379ZM26.2817 16.6512L25.2842 16.5805L25.2447 17.1396L25.7009 17.4652L26.2817 16.6512ZM27.338 17.5628L26.6156 18.2543L26.623 18.262L26.6305 18.2696L27.338 17.5628ZM28.9357 22.5633L28.045 22.1085L28.0418 22.115L28.9357 22.5633ZM27.3489 23.9287L27.5982 24.8971L27.5994 24.8969L27.3489 23.9287ZM25.497 23.7012L24.9765 24.555L24.9775 24.5557L25.497 23.7012ZM24.7298 22.2308L23.7504 22.4327L24.7298 22.2308ZM24.607 21.6666L25.5798 21.435L25.0365 19.1529L23.7662 21.1251L24.607 21.6666ZM22.2885 24.2523L21.6576 23.4764L21.3214 23.7498L21.291 24.1822L22.2885 24.2523ZM19.9359 29.1515L20.2393 30.1044L20.2464 30.1021L20.2534 30.0998L19.9359 29.1515ZM19.9343 29.152L20.2369 30.1051L20.2376 30.1049L19.9343 29.152ZM18.3484 29.1515L18.6683 28.2041L18.6668 28.2036L18.3484 29.1515ZM15.1131 27.7831C15.6415 27.7831 16.1626 27.7503 16.6742 27.6865L16.4267 25.7018C15.9971 25.7554 15.5586 25.7831 15.1131 25.7831V27.7831ZM13.5407 27.6851C14.0559 27.7498 14.5807 27.7831 15.1131 27.7831V25.7831C14.6642 25.7831 14.2226 25.755 13.7899 25.7007L13.5407 27.6851ZM12.6814 26.5141C12.4969 27.5296 12.0116 28.0481 11.5487 28.2036L12.1856 30.0994C13.5715 29.6339 14.385 28.3254 14.6492 26.8716L12.6814 26.5141ZM11.5473 28.2041C11.3371 28.275 11.1128 28.2836 10.9159 28.2638C10.7233 28.2445 10.5933 28.2019 10.584 28.1989L9.97859 30.1051C10.0922 30.1412 11.0953 30.4676 12.1871 30.0989L11.5473 28.2041ZM10.5845 28.1991L10.5828 28.1986L9.97644 30.1044L9.97809 30.105L10.5845 28.1991ZM10.5971 28.2032C10.143 28.0512 9.74422 27.6135 9.4344 26.8073C9.13026 26.0158 8.9847 25.047 8.92368 24.1733L6.92854 24.3126C6.99534 25.2691 7.16007 26.4645 7.5675 27.5247C7.96925 28.5701 8.68334 29.6716 9.96211 30.0998L10.5971 28.2032ZM4.77147 22.1972C5.45676 23.2637 6.31 24.2155 7.29419 25.018L8.55803 23.4679C7.73509 22.7969 7.02386 22.0028 6.45408 21.1161L4.77147 22.1972ZM4.63996 21.4251C4.5865 21.6496 4.54475 21.853 4.50937 22.025L6.46839 22.4279C6.50419 22.2538 6.54024 22.0788 6.5856 21.8882L4.63996 21.4251ZM4.50937 22.025C4.42933 22.4143 4.38986 22.5813 4.337 22.6988C4.31772 22.7417 4.30271 22.762 4.29159 22.7747C4.28032 22.7876 4.2558 22.8122 4.19932 22.8465L5.23773 24.5558C6.19335 23.9753 6.33404 23.0812 6.46839 22.4279L4.50937 22.025ZM4.19907 22.8467C4.01861 22.9564 3.77592 23.0029 3.51924 23.0016C3.26999 23.0002 3.09162 22.954 3.11601 22.9603L2.61729 24.8971C2.69469 24.9171 3.04421 24.9991 3.50861 25.0015C3.9656 25.004 4.62233 24.9299 5.23799 24.5557L4.19907 22.8467ZM3.1158 22.9603C2.55119 22.815 2.27346 22.3153 2.17293 22.1149L0.385273 23.0117C0.507745 23.2558 1.12983 24.5145 2.6175 24.8972L3.1158 22.9603ZM2.16996 22.109C1.85247 21.4864 2.00062 20.6871 2.46007 19.8197C2.90002 18.9891 3.49517 18.3526 3.59011 18.2532L2.14319 16.8724C2.00576 17.0164 1.26133 17.8099 0.69268 18.8835C0.143538 19.9203 -0.385901 21.4995 0.388246 23.0176L2.16996 22.109ZM3.58847 18.2549C3.89417 17.936 4.21136 17.6735 4.52133 17.454L3.36559 15.8218C2.96644 16.1044 2.54986 16.4483 2.14483 16.8707L3.58847 18.2549ZM2.91758 15.8915C2.91758 16.1656 2.9271 16.4376 2.94587 16.7073L4.94104 16.5685C4.92549 16.3449 4.91758 16.1192 4.91758 15.8915H2.91758ZM15.1131 3.99994C8.40381 3.99994 2.91758 9.29823 2.91758 15.8915H4.91758C4.91758 10.4543 9.45614 5.99994 15.1131 5.99994V3.99994ZM27.3086 15.8915C27.3086 9.29823 21.8223 3.99994 15.1131 3.99994V5.99994C20.77 5.99994 25.3086 10.4543 25.3086 15.8915H27.3086ZM27.2793 16.7218C27.2987 16.4474 27.3086 16.1705 27.3086 15.8915H25.3086C25.3086 16.1233 25.3004 16.3531 25.2842 16.5805L27.2793 16.7218ZM25.7009 17.4652C26.0048 17.682 26.3156 17.9409 26.6156 18.2543L28.0603 16.8712C27.663 16.4563 27.2548 16.117 26.8626 15.8372L25.7009 17.4652ZM26.6305 18.2696C26.7144 18.3536 27.3131 18.9889 27.7548 19.8207C28.2151 20.6873 28.3628 21.4862 28.0451 22.1085L29.8262 23.0181C30.6016 21.4997 30.0722 19.9201 29.5212 18.8825C28.9516 17.8101 28.2048 17.0155 28.0454 16.856L26.6305 18.2696ZM28.0418 22.115C27.9423 22.3133 27.6642 22.8142 27.0984 22.9606L27.5994 24.8969C29.0858 24.5123 29.7076 23.2548 29.8295 23.0117L28.0418 22.115ZM27.0995 22.9603C27.1239 22.954 26.9455 23.0002 26.6963 23.0016C26.4396 23.0029 26.1969 22.9564 26.0165 22.8467L24.9775 24.5557C25.5932 24.9299 26.2499 25.004 26.7069 25.0015C27.1713 24.9991 27.5208 24.9171 27.5982 24.8971L27.0995 22.9603ZM26.0175 22.8473C25.9617 22.8133 25.9376 22.7889 25.9264 22.7762C25.9155 22.7637 25.9005 22.7434 25.8813 22.7006C25.8286 22.5833 25.7892 22.4168 25.7092 22.029L23.7504 22.4327C23.8845 23.0832 24.0252 23.9751 24.9765 24.555L26.0175 22.8473ZM25.7092 22.029C25.6741 21.8585 25.6327 21.6572 25.5798 21.435L23.6341 21.8982C23.6791 22.0868 23.7148 22.2602 23.7504 22.4327L25.7092 22.029ZM22.9194 25.0282C23.9056 24.2263 24.7607 23.2747 25.4477 22.2081L23.7662 21.1251C23.195 22.012 22.4822 22.8059 21.6576 23.4764L22.9194 25.0282ZM21.291 24.1822C21.2296 25.0553 21.0836 26.022 20.7796 26.8112C20.4699 27.6151 20.0718 28.0514 19.6184 28.2032L20.2534 30.0998C21.53 29.6723 22.2439 28.5738 22.6459 27.5302C23.0535 26.472 23.2189 25.2787 23.2861 24.3224L21.291 24.1822ZM19.6326 28.1986L19.6309 28.1991L20.2376 30.1049L20.2393 30.1044L19.6326 28.1986ZM19.6316 28.1989C19.6223 28.2019 19.4922 28.2445 19.2997 28.2638C19.1027 28.2836 18.8785 28.275 18.6683 28.2041L18.0285 30.0989C19.1202 30.4676 20.1233 30.1412 20.2369 30.1051L19.6316 28.1989ZM18.6668 28.2036C18.2041 28.0481 17.719 27.53 17.5343 26.5151L15.5666 26.8732C15.8311 28.3263 16.6445 29.634 18.0299 30.0994L18.6668 28.2036Z" fill="white" mask="url(#path-7-outside-1_17_1860)"/>
<path d="M15.1133 21.6185C19.2314 21.6185 22.5699 19.0543 22.5699 15.8913C22.5699 12.7282 19.2314 10.1641 15.1133 10.1641C10.9951 10.1641 7.65662 12.7282 7.65662 15.8913C7.65662 19.0543 10.9951 21.6185 15.1133 21.6185Z" fill="white"/>
<path d="M11.9187 17.343C12.8097 17.343 13.532 16.4029 13.532 15.2433C13.532 14.0836 12.8097 13.1436 11.9187 13.1436C11.0277 13.1436 10.3054 14.0836 10.3054 15.2433C10.3054 16.4029 11.0277 17.343 11.9187 17.343Z" fill="#313F2D"/>
<path d="M18.0347 17.343C18.9257 17.343 19.6479 16.4029 19.6479 15.2433C19.6479 14.0836 18.9257 13.1436 18.0347 13.1436C17.1437 13.1436 16.4214 14.0836 16.4214 15.2433C16.4214 16.4029 17.1437 17.343 18.0347 17.343Z" fill="#313F2D"/>
</svg>
